<svg width="50" height="50" viewBox="0 0 50 50" fill="none" xmlns="http://www.w3.org/2000/svg">
<path d="M21.5104 30.7563C18.911 30.0005 16.6272 28.4214 15.0023 26.2563C13.3774 24.0911 12.4993 21.457 12.5 18.75V2.08334H37.5V20.8333M12.5 6.25001H2.08334V14.5833C2.08334 19.8104 5.81459 22.9167 10.4167 22.9167H12.5M41.7375 22.6771C45.2958 21.8542 47.9167 18.9646 47.9167 14.5833V6.25001H37.5M20.8333 39.5833H10.4167V47.9167H34.375M34.375 47.9167C30.7835 47.9167 27.3392 46.49 24.7996 43.9504C22.26 41.4109 20.8333 37.9665 20.8333 34.375C20.8333 30.7835 22.26 27.3392 24.7996 24.7996C27.3392 22.26 30.7835 20.8333 34.375 20.8333C37.9665 20.8333 41.4109 22.26 43.9504 24.7996C46.49 27.3392 47.9167 30.7835 47.9167 34.375C47.9167 37.9665 46.49 41.4109 43.9504 43.9504C41.4109 46.49 37.9665 47.9167 34.375 47.9167ZM41.6667 29.1667L32.2917 38.5417L27.0833 33.3333M21.2625 32.1333C19.8808 32.8267 18.7192 33.8906 17.9076 35.2063C17.096 36.522 16.6663 38.0375 16.6667 39.5833" stroke="url(#paint0_linear_35_131)" stroke-width="2"/>
<defs>
<linearGradient id="paint0_linear_35_131" x1="25" y1="2.08334" x2="25" y2="47.9167" gradientUnits="userSpaceOnUse">
<stop stop-color="#FF6F02"/>
<stop offset="1" stop-color="#FFB138"/>
</linearGradient>
</defs>
</svg>
