<svg width="50" height="50" viewBox="0 0 50 50" fill="none" xmlns="http://www.w3.org/2000/svg">
<path d="M4.42857 23.3571L45.5 4.67856M45.5 4.67856L37.8214 1.78571M45.5 4.67856L42.6429 12.3571M47.3214 48.2143H38.3929V23.2143C38.3929 22.7407 38.581 22.2865 38.9159 21.9516C39.2508 21.6167 39.705 21.4286 40.1786 21.4286H45.5357C46.0093 21.4286 46.4635 21.6167 46.7984 21.9516C47.1333 22.2865 47.3214 22.7407 47.3214 23.2143V48.2143ZM29.4643 48.2143H20.5357V28.5714C20.5357 28.0978 20.7239 27.6436 21.0587 27.3087C21.3936 26.9738 21.8478 26.7857 22.3214 26.7857H27.6786C28.1522 26.7857 28.6064 26.9738 28.9413 27.3087C29.2762 27.6436 29.4643 28.0978 29.4643 28.5714V48.2143ZM11.6071 48.2143H2.67857V33.9286C2.67857 33.455 2.86671 33.0008 3.2016 32.6659C3.53648 32.331 3.99069 32.1428 4.46429 32.1428H9.82143C10.295 32.1428 10.7492 32.331 11.0841 32.6659C11.419 33.0008 11.6071 33.455 11.6071 33.9286V48.2143Z" stroke="url(#paint0_linear_34_127)" stroke-linecap="round" stroke-linejoin="round"/>
<defs>
<linearGradient id="paint0_linear_34_127" x1="25" y1="1.78571" x2="25" y2="48.2143" gradientUnits="userSpaceOnUse">
<stop stop-color="#40FCA7"/>
<stop offset="1" stop-color="#01DEBD"/>
</linearGradient>
</defs>
</svg>
