<svg width="26" height="26" viewBox="0 0 26 26" fill="none" xmlns="http://www.w3.org/2000/svg">
<path d="M8.65476 3.79113C8.51301 3.93623 8.43365 4.13103 8.43365 4.33388C8.43365 4.53673 8.51301 4.73152 8.65476 4.87663L16.5734 13L8.65476 21.1218C8.51301 21.2669 8.43365 21.4617 8.43365 21.6645C8.43365 21.8673 8.51301 22.0621 8.65476 22.2073C8.72365 22.278 8.80603 22.3342 8.89701 22.3726C8.988 22.4111 9.08575 22.4308 9.18451 22.4308C9.28327 22.4308 9.38103 22.4111 9.47201 22.3726C9.563 22.3342 9.64537 22.278 9.71426 22.2073L18.135 13.5671C18.2829 13.4154 18.3657 13.2119 18.3657 13C18.3657 12.7881 18.2829 12.5846 18.135 12.4329L9.71426 3.79275C9.64537 3.72199 9.563 3.66575 9.47201 3.62735C9.38103 3.58895 9.28327 3.56917 9.18451 3.56917C9.08575 3.56917 8.988 3.58895 8.89701 3.62735C8.80603 3.66575 8.72365 3.72199 8.65476 3.79275V3.79113Z" fill="white"/>
</svg>
